<svg xmlns="http://www.w3.org/2000/svg" viewBox="0 0 72 72" width="72" height="72">
  <rect width="72" height="72" rx="12" fill="#1a1a2e"/>
  <g transform="translate(36,36)">
    <!-- Left side (A) -->
    <rect x="-24" y="-16" width="18" height="6" rx="2" fill="#00d2ff" opacity="0.9"/>
    <rect x="-24" y="-7" width="18" height="6" rx="2" fill="#00d2ff" opacity="0.7"/>
    <rect x="-24" y="2" width="18" height="6" rx="2" fill="#00d2ff" opacity="0.5"/>
    <rect x="-24" y="11" width="18" height="6" rx="2" fill="#00d2ff" opacity="0.3"/>
    <!-- Right side (B) -->
    <rect x="6" y="-16" width="18" height="6" rx="2" fill="#7b2ff7" opacity="0.9"/>
    <rect x="6" y="-7" width="18" height="6" rx="2" fill="#7b2ff7" opacity="0.7"/>
    <rect x="6" y="2" width="18" height="6" rx="2" fill="#7b2ff7" opacity="0.5"/>
    <rect x="6" y="11" width="18" height="6" rx="2" fill="#7b2ff7" opacity="0.3"/>
    <!-- Match lines -->
    <line x1="-6" y1="-13" x2="6" y2="-13" stroke="#00ff88" stroke-width="1.5" opacity="0.9"/>
    <line x1="-6" y1="-4" x2="6" y2="5" stroke="#00ff88" stroke-width="1.5" opacity="0.7"/>
    <line x1="-6" y1="5" x2="6" y2="-4" stroke="#00ff88" stroke-width="1.5" opacity="0.7"/>
    <!-- Checkmark -->
    <path d="M-3 22 L0 25 L5 19" stroke="#00ff88" stroke-width="2" fill="none" stroke-linecap="round"/>
  </g>
</svg>
